<?xml version="1.0" encoding="UTF-8" standalone="no"?>
<!-- Created with Inkscape (http://www.inkscape.org/) -->

<svg
   width="149.83354mm"
   height="145.0975mm"
   viewBox="0 0 149.83354 145.0975"
   version="1.1"
   id="svg1"
   inkscape:version="1.3.2 (091e20ef0f, 2023-11-25, custom)"
   sodipodi:docname="agriChallenge-logo.svg"
   inkscape:export-filename="agriChallenge-logo.svg"
   inkscape:export-xdpi="96"
   inkscape:export-ydpi="96"
   xmlns:inkscape="http://www.inkscape.org/namespaces/inkscape"
   xmlns:sodipodi="http://sodipodi.sourceforge.net/DTD/sodipodi-0.dtd"
   xmlns="http://www.w3.org/2000/svg"
   xmlns:svg="http://www.w3.org/2000/svg">
  <sodipodi:namedview
     id="namedview1"
     pagecolor="#424a7d"
     bordercolor="#000000"
     borderopacity="0.25"
     inkscape:showpageshadow="2"
     inkscape:pageopacity="0.0"
     inkscape:pagecheckerboard="true"
     inkscape:deskcolor="#d1d1d1"
     inkscape:document-units="mm"
     inkscape:zoom="0.94327723"
     inkscape:cx="267.68376"
     inkscape:cy="319.10025"
     inkscape:window-width="1920"
     inkscape:window-height="1008"
     inkscape:window-x="26"
     inkscape:window-y="23"
     inkscape:window-maximized="0"
     inkscape:current-layer="layer1" />
  <defs
     id="defs1">
    <linearGradient
       id="SVGID_1_"
       gradientUnits="userSpaceOnUse"
       x1="5550.5161"
       y1="5267.0884"
       x2="4822.5762"
       y2="5929.6484"
       gradientTransform="matrix(0.23849541,0,0,-0.23849541,-1139.1665,1490.6038)">
      <stop
         offset="0"
         style="stop-color:#83C3D7"
         id="stop875" />
      <stop
         offset="1"
         style="stop-color:#A0D3BA"
         id="stop876" />
    </linearGradient>
    <linearGradient
       id="SVGID_1_-5"
       gradientUnits="userSpaceOnUse"
       x1="5550.5161"
       y1="5267.0884"
       x2="4822.5762"
       y2="5929.6484"
       gradientTransform="matrix(0.23849541,0,0,-0.23849541,-1147.2741,1509.0585)">
      <stop
         offset="0"
         style="stop-color:#83C3D7"
         id="stop875-6" />
      <stop
         offset="1"
         style="stop-color:#A0D3BA"
         id="stop876-2" />
    </linearGradient>
  </defs>
  <g
     inkscape:label="Layer 1"
     inkscape:groupmode="layer"
     id="layer1"
     transform="translate(-23.823374,-92.523087)">
    <path
       class="st8"
       d="M 158.65504,164.41034 H 82.216915 v -11.58875 c 0.3175,0 0.608542,0.0265 0.926042,0.0265 22.119163,0 40.137293,-17.99167 40.137293,-40.11084 0,-3.3602 -0.42334,-6.69395 -1.24354,-9.92187 l -0.92605,-3.598333 -3.6777,-0.60855 c -2.11667,-0.34395 -4.31271,-0.52916 -6.48229,-0.52916 -14.710839,0 -27.596047,7.963963 -34.581047,19.790833 -6.905625,-14.94896 -22.039791,-25.347083 -39.555207,-25.347083 -2.38125,0 -4.736042,0.18521 -7.037917,0.58208 l -3.677708,0.60854 -0.926042,3.6248 c -0.899583,3.492493 -1.349375,7.117293 -1.349375,10.768543 0,24.02416 19.499792,44.7675 43.523958,44.7675 h 3.439583 l 0.02646,11.6152 H 51.81629 c -8.281457,0 -15.001874,6.72042 -15.001874,15.00188 v 43.12708 c 0,8.28146 6.720417,15.00188 15.001874,15.00188 h 106.83875 c 8.28146,0 15.00187,-6.72042 15.00187,-15.00188 v -43.12708 c -0.0264,-8.36083 -6.72041,-15.08125 -15.00187,-15.08125 z m -47.70437,-54.98042 c 0.23812,0 0.5027,0 0.74083,0 0.13229,1.08479 0.18521,2.16959 0.18521,3.25438 0,15.84854 -12.885212,28.73375 -28.733753,28.73375 -0.238125,0 -0.502709,0 -0.740834,0 -0.132291,-1.08479 -0.185208,-2.16959 -0.185208,-3.25438 0,-15.84854 12.885208,-28.73375 28.733755,-28.73375 z m -40.216672,31.72354 c -0.449791,0.0265 -1.375833,0.0265 -1.799166,0.0265 -17.727083,0 -33.707916,-15.39875 -33.707916,-33.12583 0,-1.37583 0.07937,-2.77813 0.264583,-4.1275 0.449792,-0.0265 0.873125,-0.0265 1.322917,-0.0265 17.727083,0 33.946041,14.12875 33.946041,31.85583 0,1.37584 0,3.73063 -0.02646,5.3975 z m 91.519372,81.38584 c 0,1.98437 -1.61396,3.59833 -3.59833,3.59833 H 51.81629 c -1.984374,0 -3.598333,-1.61396 -3.598333,-3.59833 v -43.12709 c 0,-1.98437 1.613959,-3.59833 3.598333,-3.59833 h 106.83875 c 1.98437,0 3.59833,1.61396 3.59833,3.59833 z"
       id="path876"
       style="fill:url(#SVGID_1_-5);stroke-width:0.264583" />
    <path
       class="st6"
       d="m 122.40712,190.07492 c -1.95791,0.84667 -3.75708,2.03729 -5.23875,3.51896 -2.98979,2.93688 -4.81541,6.82625 -5.23875,10.76854 -0.13229,1.16417 0.58209,2.30188 1.74625,2.67229 1.32292,0.42334 2.72521,-0.3175 3.14854,-1.64041 1.5875,-5.42396 6.19125,-10.08063 11.90625,-10.02771 5.68855,-0.0529 10.26584,4.57729 11.8798,9.97479 0.89958,2.91042 5.15937,2.11667 4.89479,-0.9525 -1.19063,-11.00667 -12.48834,-18.78542 -23.09813,-14.31396 z"
       id="path877"
       style="fill:#ffffff;stroke-width:0.264583" />
    <path
       class="st6"
       d="m 75.443582,190.07492 c -1.957917,0.84667 -3.757084,2.03729 -5.23875,3.51896 -2.989792,2.93688 -4.815417,6.82625 -5.23875,10.76854 -0.132292,1.16417 0.582083,2.30188 1.74625,2.67229 1.322916,0.42334 2.725208,-0.3175 3.148541,-1.64041 1.5875,-5.42396 6.19125,-10.08063 11.90625,-10.02771 5.688542,-0.0529 10.265833,4.57729 11.879792,9.97479 0.899583,2.91042 5.159375,2.11667 4.894791,-0.9525 -1.190625,-11.00667 -12.488333,-18.78542 -23.098124,-14.31396 z"
       id="path878"
       style="fill:#ffffff;stroke-width:0.264583" />
  </g>
</svg>
