<?xml version="1.0" encoding="UTF-8" standalone="no"?>
<!-- Created with Inkscape (http://www.inkscape.org/) -->

<svg
   width="188.33144mm"
   height="27.997mm"
   viewBox="0 0 188.33144 27.996998"
   version="1.1"
   id="svg1"
   xml:space="preserve"
   xmlns="http://www.w3.org/2000/svg"
   xmlns:svg="http://www.w3.org/2000/svg"><defs
     id="defs1"><rect
       x="3363.4353"
       y="1716.8702"
       width="1583.1526"
       height="260.69659"
       id="rect23" /><rect
       x="3363.4353"
       y="1716.8702"
       width="1583.1526"
       height="260.69659"
       id="rect24" /><rect
       x="3363.4353"
       y="1716.8702"
       width="1583.1526"
       height="260.69659"
       id="rect47" /></defs><g
     id="layer1"
     transform="translate(-209.66633,-618.6873)"><g
       id="g23"
       transform="matrix(0.64870875,0,0,0.64870875,53.522153,399.94932)"><g
         id="g22"
         style="fill:#ffffff;fill-opacity:1"
         transform="matrix(0.89330354,0,0,0.89330354,286.63582,62.045878)"><g
           id="g7"
           transform="matrix(0.26458333,0,0,0.26458333,-1503.0589,-35.369072)"
           style="fill:#ffffff;fill-opacity:1"><path
             class="st6"
             d="m 5610.2,1434.7 h -35.9 l -6,-22.8 h -39.5 l -6.2,22.8 h -36.1 l 24.6,-75.9 h 31.3 c -0.5,2.3 -1.1,4.4 -1.6,6.2 l -5.2,20 h 5.5 l -3.1,11.4 h 59.6 l 9,27.3 z"
             id="path3"
             style="fill:#ffffff;fill-opacity:1" /><path
             class="st6"
             d="m 5546.2,1377.4 h 17.3 l -5.3,-20 c -0.5,-2.2 -1.3,-5.3 -2.4,-9.3 -1,-4 -2.1,-8.2 -3.1,-12.5 -1,-4.3 -1.8,-7.8 -2.4,-10.6 -0.5,2.8 -1.2,6.2 -2.1,10.3 -1,4.1 -1.9,8.1 -2.8,12.1 -0.4,1.4 -0.7,2.6 -1,3.8 h -31.3 l 15,-46.2 h 43.8 l 27.6,83.7 H 5543 Z"
             id="path7"
             style="fill:#ffffff;fill-opacity:1" /></g><g
           id="g9"
           transform="matrix(0.26458333,0,0,0.26458333,-1503.0589,-35.369072)"
           style="fill:#ffffff;fill-opacity:1"><path
             class="st6"
             d="m 5829.7,1360.9 v -19.5 h -25 v 93.3 h 33 v -64.5 c -4.6,-0.7 -8,-4.6 -8,-9.3 z"
             id="path8"
             style="fill:#ffffff;fill-opacity:1" /><path
             class="st6"
             d="m 5810.5,1305.3 v 28.3 h 25 v 19.5 c 0,4.7 3.5,8.6 8,9.3 v -57.1 z"
             id="path9"
             style="fill:#ffffff;fill-opacity:1" /></g><g
           id="g21"
           transform="matrix(0.26458333,0,0,0.26458333,-1503.0589,-35.369072)"
           style="fill:#ffffff;fill-opacity:1"><g
             id="g18"
             style="fill:#ffffff;fill-opacity:1"><path
               class="st6"
               d="m 5945.6,1437 c -8.6,0 -16.8,-1.7 -24.4,-5.2 -7.6,-3.4 -14.3,-8.2 -20,-14.3 -5.8,-6.1 -10.3,-13.1 -13.5,-21.1 -3.3,-8 -4.9,-16.6 -4.9,-25.7 0,-9.1 1.6,-17.8 4.9,-25.8 3.3,-8 7.8,-15 13.5,-21.1 5.8,-6.1 12.4,-10.8 20,-14.2 7.6,-3.4 15.7,-5.2 24.4,-5.2 10.3,0 19.9,2.4 28.6,7.2 8.7,4.8 15.9,11.1 21.6,19.1 l -22.5,12.1 c -3.4,-4 -7.5,-7.2 -12.3,-9.6 -4.8,-2.4 -10,-3.6 -15.4,-3.6 -5.2,0 -10,1.1 -14.6,3.2 -4.6,2.1 -8.6,5.1 -12,8.9 -3.4,3.8 -6.1,8.1 -8.1,13.1 -1.9,4.9 -2.9,10.3 -2.9,16 0,5.7 1,11 2.9,15.9 1.9,5 4.6,9.3 8.1,13.1 3.4,3.7 7.4,6.7 12,8.9 4.6,2.2 9.4,3.2 14.6,3.2 5.5,0 10.7,-1.2 15.5,-3.7 4.8,-2.4 8.9,-5.7 12.3,-9.7 l 22.5,12.2 c -5.7,7.9 -12.9,14.3 -21.6,19.1 -8.9,4.8 -18.4,7.2 -28.7,7.2 z"
               id="path10"
               style="fill:#ffffff;fill-opacity:1" /><path
               class="st6"
               d="m 6097.4,1376.6 v 58.1 h -25.2 v -51.1 c 0,-3.2 -0.8,-6.1 -2.3,-8.7 -1.6,-2.6 -3.6,-4.6 -6.2,-6.2 -2.6,-1.5 -5.5,-2.3 -8.6,-2.3 -3.1,0 -6.1,0.8 -8.7,2.3 -2.6,1.5 -4.7,3.6 -6.2,6.2 -1.5,2.6 -2.3,5.5 -2.3,8.7 v 51.1 h -25.2 l -0.1,-136.9 h 25.2 l 0.1,52.4 c 3,-2.9 6.6,-5.2 10.7,-6.9 4.1,-1.6 8.4,-2.5 13,-2.5 6.6,0 12.6,1.6 18,4.8 5.4,3.2 9.7,7.5 12.9,12.9 3.3,5.5 4.9,11.5 4.9,18.1 z"
               id="path11"
               style="fill:#ffffff;fill-opacity:1" /><path
               class="st6"
               d="m 6180.8,1343.4 h 25.2 v 91.3 h -25.3 l -1.2,-9.5 c -2.4,3.5 -5.4,6.4 -9.1,8.6 -3.7,2.2 -8.1,3.3 -13.1,3.3 -6.8,0 -13.2,-1.3 -19.1,-3.8 -5.9,-2.6 -11.1,-6.1 -15.6,-10.6 -4.5,-4.5 -8,-9.7 -10.5,-15.7 -2.5,-5.9 -3.8,-12.3 -3.8,-19.1 0,-6.8 1.2,-12.6 3.6,-18.3 2.4,-5.7 5.7,-10.6 10,-15 4.3,-4.3 9.3,-7.7 14.9,-10.1 5.6,-2.4 11.7,-3.7 18.2,-3.7 5.6,0 10.6,1.2 15.1,3.6 4.5,2.4 8.4,5.4 11.7,9 z m -24.1,69.5 c 4.1,0 7.9,-1.1 11.2,-3.2 3.3,-2.1 6,-5 7.9,-8.6 1.9,-3.6 2.9,-7.6 2.9,-12 0,-4.4 -1,-8.5 -2.9,-12.1 -1.9,-3.6 -4.6,-6.5 -7.9,-8.6 -3.4,-2.1 -7.1,-3.2 -11.2,-3.2 -4.1,0 -8,1.1 -11.4,3.2 -3.4,2.1 -6.1,5 -8.1,8.6 -2,3.6 -3,7.6 -3,12 0,4.4 1,8.4 3.1,12 2,3.6 4.8,6.5 8.2,8.6 3.3,2.2 7.1,3.3 11.2,3.3 z"
               id="path12"
               style="fill:#ffffff;fill-opacity:1" /><path
               class="st6"
               d="m 6224.5,1434.7 v -136.9 h 25.2 v 136.9 z"
               id="path13"
               style="fill:#ffffff;fill-opacity:1" /><path
               class="st6"
               d="m 6271.6,1434.7 v -136.9 h 25.2 v 136.9 z"
               id="path14"
               style="fill:#ffffff;fill-opacity:1" /><path
               class="st6"
               d="m 6357.2,1437 c -8.4,0 -16.1,-2.2 -23,-6.5 -6.9,-4.3 -12.4,-10.1 -16.5,-17.4 -4.1,-7.3 -6.2,-15.4 -6.2,-24.2 0,-6.6 1.2,-12.9 3.6,-18.7 2.4,-5.8 5.6,-10.9 9.8,-15.3 4.2,-4.4 9,-7.9 14.6,-10.4 5.5,-2.5 11.4,-3.7 17.7,-3.7 7.2,0 13.9,1.6 19.9,4.7 6,3.1 11.1,7.3 15.2,12.7 4.2,5.4 7.1,11.4 9,18.2 1.8,6.8 2.1,13.8 0.9,21.1 h -63.3 c 0.8,2.7 2,5.1 3.7,7.3 1.7,2.2 3.7,3.9 6.2,5.2 2.5,1.3 5.3,1.9 8.5,2 3.2,0.1 6.1,-0.7 8.8,-2.2 2.7,-1.5 5,-3.6 6.9,-6.1 l 25.7,5.9 c -3.7,8.1 -9.2,14.7 -16.6,19.9 -7.5,5 -15.8,7.6 -24.9,7.5 z m -19.4,-58.2 h 38.8 c -0.8,-3 -2.1,-5.8 -4,-8.2 -1.9,-2.4 -4.2,-4.4 -6.8,-5.8 -2.6,-1.4 -5.5,-2.1 -8.6,-2.1 -3.1,0 -5.9,0.7 -8.5,2.1 -2.6,1.4 -4.9,3.3 -6.8,5.7 -1.9,2.5 -3.2,5.2 -4.1,8.3 z"
               id="path15"
               style="fill:#ffffff;fill-opacity:1" /><path
               class="st6"
               d="m 6501.6,1376.6 v 58.1 h -25.2 v -51.1 c 0,-3.2 -0.8,-6.1 -2.3,-8.7 -1.6,-2.6 -3.6,-4.6 -6.2,-6.2 -2.6,-1.5 -5.5,-2.3 -8.6,-2.3 -3.2,0 -6.1,0.8 -8.7,2.3 -2.6,1.5 -4.7,3.6 -6.2,6.2 -1.5,2.6 -2.3,5.5 -2.3,8.7 v 51.1 h -25.2 l -0.1,-91.3 h 25.2 l 0.1,6.8 c 3,-2.9 6.6,-5.2 10.7,-6.9 4.1,-1.6 8.4,-2.5 13,-2.5 6.6,0 12.6,1.6 18,4.8 5.4,3.2 9.7,7.5 12.9,12.9 3.3,5.5 4.9,11.5 4.9,18.1 z"
               id="path16"
               style="fill:#ffffff;fill-opacity:1" /><path
               class="st6"
               d="m 6584.3,1343.4 h 25.2 v 92.6 c 0,6.8 -1.4,12.9 -4.1,18.3 -2.7,5.4 -6.5,10.1 -11.2,14 -4.7,3.9 -10.1,6.9 -16.3,9 -6.1,2.1 -12.6,3.1 -19.4,3.1 -6.5,0 -12.6,-1.3 -18.5,-3.8 -5.9,-2.5 -11.1,-6 -15.7,-10.5 -4.6,-4.4 -8.1,-9.6 -10.7,-15.3 l 23,-10.5 c 1.3,3 3,5.7 5.2,7.9 2.2,2.2 4.8,3.9 7.7,5.1 2.9,1.2 5.9,1.8 9,1.8 3.3,0 6.6,-0.4 9.6,-1.2 3.1,-0.8 5.8,-2 8.3,-3.6 2.4,-1.6 4.4,-3.6 5.8,-5.9 1.4,-2.3 2.1,-5.1 2.1,-8.3 v -10.6 c -2.8,3.5 -6.2,6.3 -10.2,8.4 -4,2.2 -8.6,3.2 -13.8,3.2 -6.6,0 -12.7,-1.3 -18.5,-3.7 -5.8,-2.5 -10.8,-5.9 -15.2,-10.4 -4.4,-4.4 -7.8,-9.5 -10.3,-15.3 -2.5,-5.8 -3.7,-12 -3.7,-18.6 0,-6.6 1.2,-12.8 3.7,-18.6 2.5,-5.8 5.9,-10.9 10.3,-15.3 4.4,-4.4 9.4,-7.9 15.2,-10.4 5.8,-2.5 11.9,-3.7 18.5,-3.7 5.2,0 9.8,1.1 13.8,3.2 4,2.2 7.4,5 10.2,8.4 z m -23.6,69.5 c 4.1,0 7.9,-1.1 11.2,-3.2 3.3,-2.2 6,-5 7.9,-8.6 1.9,-3.6 2.9,-7.6 2.9,-12 0,-4.4 -1,-8.4 -2.9,-12 -1.9,-3.6 -4.6,-6.5 -7.9,-8.6 -3.4,-2.1 -7.1,-3.2 -11.2,-3.2 -4.1,0 -7.8,1.1 -11.2,3.2 -3.4,2.1 -6.1,5 -8.1,8.6 -2,3.6 -3,7.6 -3,12 0,4.4 1,8.4 3,12 2,3.6 4.7,6.5 8.1,8.6 3.4,2.1 7.1,3.2 11.2,3.2 z"
               id="path17"
               style="fill:#ffffff;fill-opacity:1" /><path
               class="st6"
               d="m 6669.1,1437 c -8.4,0 -16.1,-2.2 -23,-6.5 -6.9,-4.3 -12.4,-10.1 -16.5,-17.4 -4.1,-7.3 -6.2,-15.4 -6.2,-24.2 0,-6.6 1.2,-12.9 3.6,-18.7 2.4,-5.8 5.6,-10.9 9.8,-15.3 4.2,-4.4 9,-7.9 14.6,-10.4 5.5,-2.5 11.4,-3.7 17.7,-3.7 7.2,0 13.9,1.6 19.9,4.7 6,3.1 11.1,7.3 15.2,12.7 4.1,5.4 7.1,11.4 9,18.2 1.8,6.8 2.1,13.8 0.9,21.1 h -63.3 c 0.8,2.7 2,5.1 3.7,7.3 1.7,2.2 3.7,3.9 6.2,5.2 2.5,1.3 5.3,1.9 8.5,2 3.2,0.1 6.1,-0.7 8.8,-2.2 2.7,-1.5 5,-3.6 6.9,-6.1 l 25.7,5.9 c -3.7,8.1 -9.2,14.7 -16.6,19.9 -7.4,5.2 -15.7,7.6 -24.9,7.5 z m -19.3,-58.2 h 38.8 c -0.8,-3 -2.1,-5.8 -4,-8.2 -1.9,-2.4 -4.2,-4.4 -6.8,-5.8 -2.6,-1.4 -5.5,-2.1 -8.6,-2.1 -3.1,0 -5.9,0.7 -8.5,2.1 -2.7,1.4 -4.9,3.3 -6.8,5.7 -1.9,2.5 -3.3,5.2 -4.1,8.3 z"
               id="path18"
               style="fill:#ffffff;fill-opacity:1" /></g><g
             id="g20"
             style="fill:#ffffff;fill-opacity:1"><path
               class="st6"
               d="m 5687.4,1342.5 h 25.2 v 92.6 c 0,6.8 -1.4,12.9 -4.1,18.3 -2.7,5.4 -6.5,10.1 -11.2,14 -4.7,3.9 -10.1,6.9 -16.3,9 -6.1,2.1 -12.6,3.1 -19.4,3.1 -6.5,0 -12.6,-1.3 -18.5,-3.8 -5.9,-2.5 -11.1,-6 -15.7,-10.5 -4.6,-4.5 -8.1,-9.6 -10.7,-15.3 l 23,-10.5 c 1.3,3 3,5.7 5.2,7.9 2.2,2.2 4.8,3.9 7.7,5.1 2.9,1.2 5.9,1.8 9,1.8 3.3,0 6.6,-0.4 9.6,-1.2 3.1,-0.8 5.8,-2 8.3,-3.6 2.4,-1.6 4.4,-3.6 5.8,-5.9 1.4,-2.4 2.1,-5.1 2.1,-8.3 v -10.6 c -2.8,3.5 -6.2,6.3 -10.2,8.4 -4,2.2 -8.6,3.2 -13.8,3.2 -6.6,0 -12.7,-1.3 -18.5,-3.7 -5.8,-2.5 -10.8,-5.9 -15.2,-10.4 -4.4,-4.4 -7.8,-9.5 -10.3,-15.3 -2.5,-5.8 -3.7,-12 -3.7,-18.6 0,-6.6 1.2,-12.8 3.7,-18.6 2.5,-5.8 5.9,-10.9 10.3,-15.3 4.4,-4.4 9.4,-7.9 15.2,-10.4 5.8,-2.5 11.9,-3.7 18.5,-3.7 5.2,0 9.8,1.1 13.8,3.2 4,2.2 7.4,5 10.2,8.4 z m -23.7,69.4 c 4.1,0 7.9,-1.1 11.2,-3.2 3.3,-2.2 6,-5 7.9,-8.6 1.9,-3.6 2.9,-7.6 2.9,-12 0,-4.4 -1,-8.4 -2.9,-12 -1.9,-3.6 -4.6,-6.5 -7.9,-8.6 -3.3,-2.1 -7.1,-3.2 -11.2,-3.2 -4.1,0 -7.8,1.1 -11.2,3.2 -3.4,2.1 -6.1,5 -8.1,8.6 -2,3.6 -3,7.6 -3,12 0,4.4 1,8.4 3,12 2,3.6 4.7,6.5 8.1,8.6 3.4,2.2 7.2,3.2 11.2,3.2 z"
               id="path19"
               style="fill:#ffffff;fill-opacity:1" /><path
               class="st6"
               d="m 5734.6,1433.8 -0.1,-91.3 h 25.2 l 0.1,6.8 c 3,-2.9 6.6,-5.2 10.7,-6.9 4.1,-1.6 8.4,-2.5 13,-2.5 3.3,0 6.7,0.5 10,1.5 l -10,25.5 c -2.2,-0.9 -4.4,-1.4 -6.7,-1.4 -3.2,0 -6.1,0.8 -8.7,2.3 -2.6,1.5 -4.7,3.6 -6.2,6.2 -1.5,2.6 -2.3,5.5 -2.3,8.7 v 51.1 z"
               id="path20"
               style="fill:#ffffff;fill-opacity:1" /></g></g></g><g
         id="g17"
         transform="matrix(2.2233053,0,0,2.2233053,177.30689,448.65014)">
	<path
   fill="#54b848"
   d="m 166.759,9.807 c 1.079,0 1.913,0.823 1.913,1.87 0,1.068 -0.834,1.892 -1.924,1.892 -1.078,0 -1.937,-0.823 -1.937,-1.892 0,-1.047 0.859,-1.87 1.937,-1.87 z m -0.023,0.329 c -0.859,0 -1.508,0.693 -1.508,1.542 0,0.866 0.648,1.551 1.53,1.551 0.858,0.012 1.495,-0.685 1.495,-1.539 0,-0.861 -0.637,-1.554 -1.506,-1.554 z m -0.326,2.574 h -0.371 v -1.96 c 0.199,-0.046 0.417,-0.062 0.685,-0.062 0.337,0 0.499,0.062 0.638,0.15 0.116,0.084 0.198,0.236 0.198,0.411 0,0.244 -0.18,0.406 -0.396,0.471 v 0.023 c 0.182,0.074 0.277,0.225 0.336,0.469 0.06,0.309 0.094,0.429 0.141,0.498 h -0.377 c -0.064,-0.069 -0.104,-0.248 -0.156,-0.522 -0.047,-0.209 -0.18,-0.301 -0.465,-0.301 h -0.232 v 0.823 z m 0,-1.105 h 0.244 c 0.273,0 0.51,-0.082 0.51,-0.321 0,-0.187 -0.115,-0.314 -0.475,-0.314 -0.139,0 -0.227,0.012 -0.279,0.024 z"
   id="path1-3" />
	<path
   fill="#54b848"
   d="m 79.587,30.669 c 0,2.892 -1.612,5.524 -4.21,6.865 -6.046,3.102 -14.82,3.102 -20.852,0 -2.607,-1.341 -4.219,-3.973 -4.219,-6.865 v -6.878 c 0,-2.894 1.611,-5.526 4.215,-6.86 h 0.004 c 6.031,-3.108 14.806,-3.108 20.852,0 2.598,1.334 4.21,3.966 4.21,6.86 z M 55.848,23.791 v 6.878 c 0,0.862 0.464,1.605 1.236,2.007 4.411,2.266 11.317,2.266 15.729,0 0.766,-0.402 1.229,-1.145 1.229,-2.007 v -6.878 c 0,-0.856 -0.463,-1.606 -1.229,-2 -4.412,-2.273 -11.318,-2.273 -15.729,0 -0.772,0.394 -1.236,1.144 -1.236,2"
   id="path2-6" />
	<path
   fill="#54b848"
   d="m 89.142,21.792 c 4.406,-2.273 11.318,-2.273 15.726,0 0.775,0.393 1.229,1.143 1.229,2 v 6.878 c 0,0.862 -0.453,1.605 -1.229,2.007 -4.407,2.266 -11.319,2.266 -15.726,0 -0.771,-0.402 -1.229,-1.145 -1.229,-2.007 v -6.878 c 0,-0.857 0.458,-1.607 1.229,-2 m -6.777,8.877 c 0,2.892 1.617,5.524 4.215,6.865 6.041,3.102 14.809,3.102 20.85,0 2.598,-1.341 4.222,-3.973 4.222,-6.865 v -6.878 c 0,-2.894 -1.624,-5.526 -4.222,-6.86 -5.605,-2.887 -13.568,-3.085 -19.517,-0.614 v -6.17 c 0,-0.092 -0.041,-0.179 -0.099,-0.243 -0.064,-0.059 -0.156,-0.098 -0.248,-0.098 -0.049,0 -0.094,0.004 -0.141,0.027 l -4.639,2.291 c -0.081,0.029 -0.154,0.086 -0.225,0.143 -0.123,0.128 -0.197,0.298 -0.197,0.488 v 17.914 z"
   id="path3-7" />
	<path
   fill="#54b848"
   d="m 136.619,12.861 c 0,0.546 -0.313,1.044 -0.8,1.298 -1.142,0.587 -2.807,0.587 -3.948,0 -0.494,-0.254 -0.801,-0.752 -0.801,-1.298 v -1.315 c 0,-0.545 0.307,-1.044 0.801,-1.297 1.142,-0.587 2.807,-0.587 3.948,0 0.487,0.253 0.8,0.753 0.8,1.297 z"
   id="path4-5" />
	<path
   fill="#54b848"
   d="m 119.976,12.861 c 0,0.546 -0.313,1.044 -0.799,1.298 -1.148,0.587 -2.807,0.587 -3.955,0 -0.486,-0.254 -0.799,-0.752 -0.799,-1.298 v -1.315 c 0,-0.545 0.313,-1.044 0.799,-1.297 1.148,-0.587 2.807,-0.587 3.955,0 0.486,0.253 0.799,0.753 0.799,1.297 z"
   id="path5-3" />
	<path
   fill="#54b848"
   d="m 128.293,38.153 c 0,0.187 -0.151,0.337 -0.348,0.337 h -4.848 c -0.197,0 -0.359,-0.15 -0.359,-0.337 V 12.769 c 0,-0.197 0.081,-0.371 0.209,-0.491 0.068,-0.058 0.139,-0.112 0.226,-0.146 l 4.643,-2.289 c 0.035,-0.019 0.082,-0.03 0.129,-0.03 0.092,0 0.186,0.042 0.244,0.104 0.068,0.058 0.104,0.152 0.104,0.244 z"
   id="path6-5" />
	<path
   fill="#54b848"
   d="m 131.07,18.915 c 0,-0.186 0.076,-0.358 0.203,-0.48 0.064,-0.065 0.135,-0.112 0.219,-0.146 l 4.639,-2.295 c 0.047,-0.013 0.094,-0.025 0.141,-0.025 0.093,0 0.185,0.043 0.243,0.101 0.065,0.063 0.104,0.15 0.104,0.244 v 21.84 c 0,0.187 -0.155,0.337 -0.348,0.337 h -4.852 c -0.193,0 -0.35,-0.15 -0.35,-0.337 V 18.915 Z"
   id="path7-6" />
	<path
   fill="#54b848"
   d="m 119.976,18.915 c 0,-0.186 -0.085,-0.358 -0.208,-0.48 -0.058,-0.065 -0.139,-0.112 -0.22,-0.146 l -4.65,-2.295 c -0.033,-0.013 -0.081,-0.025 -0.127,-0.025 -0.093,0 -0.186,0.043 -0.243,0.101 -0.072,0.063 -0.104,0.15 -0.104,0.244 v 21.84 c 0,0.187 0.15,0.337 0.348,0.337 h 4.858 c 0.187,0 0.347,-0.15 0.347,-0.337 V 18.915 Z"
   id="path8-2" />
	<path
   fill="#54b848"
   d="m 5.608,23.791 c 0,-0.856 0.456,-1.606 1.228,-2 3.924,-2.02 9.826,-2.239 14.186,-0.662 v 17.023 c 0,0.187 0.152,0.337 0.344,0.337 h 4.852 c 0.197,0 0.355,-0.15 0.355,-0.337 V 21.13 c 4.354,-1.577 10.257,-1.358 14.175,0.662 0.774,0.393 1.231,1.143 1.231,2 v 14.362 c 0,0.187 0.157,0.337 0.347,0.337 h 4.859 c 0.186,0 0.347,-0.15 0.347,-0.337 V 23.791 c 0,-2.894 -1.616,-5.526 -4.213,-6.86 C 37.706,14.044 29.744,13.842 23.795,16.317 17.846,13.842 9.886,14.044 4.273,16.931 1.675,18.265 0.057,20.897 0.057,23.791 v 14.362 c 0,0.187 0.158,0.337 0.342,0.337 h 4.852 c 0.198,0 0.356,-0.15 0.356,-0.337 V 23.791 Z"
   id="path9-9" />
	<path
   fill="#54b848"
   d="m 139.391,23.791 c 0,-2.894 1.611,-5.526 4.221,-6.86 6.037,-3.108 14.808,-3.108 20.851,0 1.971,1.016 3.375,2.768 3.943,4.824 h -6.588 c -4.411,-2.231 -11.26,-2.22 -15.648,0.036 -0.772,0.393 -1.229,1.143 -1.229,2 v 0.703 h 23.383 c 0.197,0 0.348,0.149 0.348,0.335 v 5.84 c 0,2.892 -1.611,5.524 -4.209,6.865 -6.043,3.102 -14.81,3.102 -20.851,0 -1.972,-1.016 -3.376,-2.772 -3.943,-4.825 h 6.575 c 4.418,2.227 11.273,2.22 15.656,-0.034 0.764,-0.402 1.229,-1.145 1.229,-2.007 v -0.694 h -23.391 c -0.189,0 -0.347,-0.159 -0.347,-0.345 z"
   id="path10-1" />
	<path
   fill="#ba2b31"
   d="m 48.172,9.382 c 0,0.134 -0.082,0.255 -0.197,0.313 -0.279,0.147 -0.678,0.147 -0.951,0 C 46.896,9.637 46.827,9.517 46.827,9.382 V 9.068 c 0,-0.138 0.069,-0.254 0.197,-0.313 0.274,-0.149 0.672,-0.149 0.951,0 0.115,0.059 0.197,0.174 0.197,0.313 z"
   id="path11-2" />
	<path
   fill="#ba2b31"
   d="m 42.767,9.382 c 0,0.134 -0.081,0.255 -0.196,0.313 -0.279,0.147 -0.673,0.147 -0.952,0 C 41.498,9.637 41.422,9.517 41.422,9.382 V 9.068 c 0,-0.138 0.076,-0.254 0.197,-0.313 0.279,-0.149 0.673,-0.149 0.952,0 0.116,0.059 0.196,0.174 0.196,0.313 z"
   id="path12-7" />
	<path
   fill="#ba2b31"
   d="m 44.78,9.382 c 0,0.134 -0.076,0.255 -0.203,0.313 -0.268,0.147 -0.673,0.147 -0.952,0 C 43.509,9.637 43.439,9.517 43.439,9.382 V 9.068 c 0,-0.138 0.07,-0.254 0.186,-0.313 0.278,-0.149 0.684,-0.149 0.952,0 0.127,0.059 0.203,0.174 0.203,0.313 z"
   id="path13-0" />
	<path
   fill="#ba2b31"
   d="m 33.972,9.382 c 0,0.134 -0.077,0.255 -0.196,0.313 -0.279,0.147 -0.681,0.147 -0.958,0 -0.116,-0.058 -0.19,-0.178 -0.19,-0.313 V 9.068 c 0,-0.138 0.074,-0.254 0.19,-0.313 0.277,-0.149 0.679,-0.149 0.958,0 0.12,0.059 0.196,0.174 0.196,0.313 z"
   id="path14-9" />
	<path
   fill="#ba2b31"
   d="m 35.984,9.382 c 0,0.134 -0.075,0.255 -0.191,0.313 -0.277,0.147 -0.68,0.147 -0.969,0 C 34.715,9.637 34.638,9.517 34.638,9.382 V 9.068 c 0,-0.138 0.077,-0.254 0.186,-0.313 0.289,-0.149 0.691,-0.149 0.969,0 0.117,0.059 0.191,0.174 0.191,0.313 z"
   id="path15-3" />
	<path
   fill="#ba2b31"
   d="M 56.591,7.256 C 57.297,7.395 58.098,7.306 58.701,7 58.812,6.943 58.91,6.866 58.985,6.774 60.452,7.505 62.547,7.505 63.996,6.762 64.627,6.437 65.01,5.799 65.01,5.1 V 3.433 C 65.01,2.736 64.627,2.1 63.996,1.775 62.633,1.079 60.706,1.033 59.269,1.631 V 1.295 c 0,-0.023 -0.004,-0.042 -0.023,-0.054 -0.012,-0.023 -0.035,-0.035 -0.059,-0.035 0,0 -0.022,0.012 -0.033,0.012 l -1.119,0.557 c -0.023,0.012 -0.041,0.019 -0.053,0.034 -0.035,0.03 -0.047,0.069 -0.047,0.116 v 3.792 c 0,0.07 -0.035,0.128 -0.086,0.151 -0.332,0.169 -0.842,0.169 -1.166,0 C 56.624,5.845 56.59,5.787 56.59,5.717 V 3.433 c 0,-0.697 -0.388,-1.333 -1.014,-1.658 -1.469,-0.754 -3.579,-0.754 -5.04,0 -0.631,0.325 -1.031,0.961 -1.031,1.658 v 1.666 c 0,0.699 0.4,1.337 1.031,1.662 1.352,0.696 3.281,0.743 4.72,0.146 v 0.677 c 0,0.208 -0.116,0.383 -0.302,0.483 -1.061,0.545 -2.719,0.549 -3.785,0.004 h -1.596 c 0.14,0.499 0.486,0.922 0.963,1.171 1.461,0.754 3.571,0.754 5.04,0 C 56.202,8.917 56.59,8.278 56.59,7.583 V 7.256 Z M 55.257,5.099 c 0,0.202 -0.116,0.387 -0.302,0.486 -1.066,0.55 -2.736,0.55 -3.803,0 C 50.966,5.485 50.857,5.3 50.857,5.099 V 3.433 c 0,-0.202 0.109,-0.382 0.295,-0.476 1.066,-0.555 2.736,-0.555 3.803,0 0.185,0.094 0.302,0.274 0.302,0.476 z m 8.419,0 c 0,0.202 -0.115,0.387 -0.301,0.486 -1.067,0.55 -2.736,0.55 -3.803,0 C 59.387,5.485 59.27,5.3 59.27,5.099 V 3.433 c 0,-0.202 0.117,-0.382 0.302,-0.476 1.067,-0.555 2.736,-0.555 3.803,0 0.186,0.094 0.301,0.274 0.301,0.476 z"
   id="path16-6" />
	<path
   fill="#ba2b31"
   d="m 48.086,1.496 h -1.179 c -0.046,0 -0.081,0.036 -0.081,0.082 v 3.798 c 0,0.145 -0.074,0.267 -0.209,0.33 -0.742,0.382 -1.902,0.382 -2.645,0 C 43.845,5.643 43.77,5.521 43.77,5.376 V 1.578 c 0,-0.046 -0.041,-0.082 -0.087,-0.082 h -1.171 c -0.046,0 -0.081,0.036 -0.081,0.082 v 3.798 c 0,0.145 -0.082,0.267 -0.209,0.33 -0.743,0.382 -1.902,0.382 -2.644,0 C 39.451,5.643 39.37,5.521 39.37,5.376 V 0.088 C 39.37,0.065 39.358,0.047 39.346,0.023 39.324,0.012 39.307,0 39.285,0 l -0.032,0.008 -1.125,0.556 c -0.023,0.011 -0.035,0.023 -0.058,0.039 -0.023,0.023 -0.046,0.07 -0.046,0.116 l 0.007,4.657 c 0,0.145 -0.077,0.267 -0.204,0.33 -0.742,0.382 -1.906,0.382 -2.645,0 C 35.051,5.643 34.974,5.521 34.974,5.376 V 1.578 c 0,-0.046 -0.039,-0.082 -0.081,-0.082 h -1.172 c -0.045,0 -0.081,0.036 -0.081,0.082 v 3.798 c 0,0.145 -0.08,0.267 -0.22,0.33 -0.742,0.382 -1.891,0.382 -2.633,0 -0.115,-0.058 -0.19,-0.155 -0.208,-0.278 v -3.85 c 0,-0.046 -0.046,-0.082 -0.086,-0.082 h -1.178 c -0.039,0 -0.074,0.036 -0.074,0.082 v 3.798 c 0,0.145 -0.076,0.267 -0.215,0.33 -0.743,0.382 -1.903,0.382 -2.638,0 C 26.254,5.643 26.185,5.521 26.185,5.376 V 1.578 c 0,-0.046 -0.047,-0.082 -0.093,-0.082 H 24.92 c -0.046,0 -0.081,0.036 -0.081,0.082 v 3.798 c 0,0.145 -0.074,0.267 -0.208,0.33 -0.736,0.382 -1.903,0.382 -2.645,0 C 21.859,5.643 21.778,5.521 21.778,5.376 V 1.578 c 0,-0.046 -0.035,-0.082 -0.085,-0.082 h -1.179 c -0.046,0 -0.08,0.036 -0.08,0.082 l 0.006,6.006 c 0,0.208 -0.111,0.383 -0.297,0.483 -1.067,0.549 -2.737,0.549 -3.804,0 h -1.57 c 0.133,0.503 0.469,0.926 0.957,1.175 1.461,0.754 3.571,0.754 5.039,0 0.632,-0.325 1.014,-0.964 1.014,-1.659 V 7.081 c 1.136,0.382 2.558,0.307 3.579,-0.215 0.051,-0.034 0.104,-0.058 0.155,-0.092 0.046,0.034 0.101,0.058 0.151,0.092 1.183,0.61 2.911,0.61 4.089,0 0.058,-0.034 0.105,-0.058 0.155,-0.092 0.047,0.034 0.1,0.058 0.151,0.092 1.183,0.61 2.906,0.61 4.093,0 0.053,-0.034 0.104,-0.058 0.151,-0.092 0.054,0.034 0.104,0.058 0.163,0.092 1.182,0.61 2.899,0.61 4.081,0 0.058,-0.034 0.106,-0.058 0.15,-0.092 0.059,0.034 0.105,0.058 0.164,0.092 1.183,0.61 2.898,0.61 4.081,0 C 43,6.832 43.046,6.808 43.1,6.774 c 0.051,0.034 0.097,0.058 0.155,0.092 1.182,0.61 2.906,0.61 4.089,0 C 47.848,6.6 48.173,6.089 48.173,5.522 V 1.578 C 48.172,1.532 48.131,1.496 48.086,1.496"
   id="path17-0" />
</g><text
         xml:space="preserve"
         transform="matrix(0.40786151,0,0,0.40786151,-45.781376,-473.90487)"
         id="text23"
         style="font-size:192px;font-family:Cairo;-inkscape-font-specification:Cairo;text-align:center;white-space:pre;shape-inside:url(#rect23);display:inline;fill:#ffffff;fill-opacity:1;stroke:#ff00ff;stroke-width:1.9;stroke-linejoin:round;stroke-opacity:0"><tspan
           x="3481.8596"
           y="1894.4711"
           id="tspan8"><tspan
             style="font-family:'a Astro Space';-inkscape-font-specification:'a Astro Space'"
             id="tspan7">Participant</tspan></tspan></text><text
         xml:space="preserve"
         transform="matrix(0.40786151,0,0,0.40786151,-45.501926,-375.73121)"
         id="text24"
         style="font-size:192px;font-family:Cairo;-inkscape-font-specification:Cairo;text-align:center;white-space:pre;shape-inside:url(#rect24);display:inline;fill:#000000;fill-opacity:1;stroke:#ff00ff;stroke-width:1.9;stroke-linejoin:round;stroke-opacity:0"><tspan
           x="3481.8596"
           y="1894.4711"
           id="tspan10"><tspan
             style="font-family:'a Astro Space';-inkscape-font-specification:'a Astro Space'"
             id="tspan9">Participant</tspan></tspan></text><g
         id="g47"
         style="fill:#000000;fill-opacity:1"
         transform="matrix(0.89330354,0,0,0.89330354,285.30602,9.9718259)"><g
           id="g32"
           transform="matrix(0.26458333,0,0,0.26458333,-1503.0589,-35.369072)"
           style="fill:#000000;fill-opacity:1"><path
             class="st6"
             d="m 5610.2,1434.7 h -35.9 l -6,-22.8 h -39.5 l -6.2,22.8 h -36.1 l 24.6,-75.9 h 31.3 c -0.5,2.3 -1.1,4.4 -1.6,6.2 l -5.2,20 h 5.5 l -3.1,11.4 h 59.6 l 9,27.3 z"
             id="path31"
             style="fill:#000000;fill-opacity:1" /><path
             class="st6"
             d="m 5546.2,1377.4 h 17.3 l -5.3,-20 c -0.5,-2.2 -1.3,-5.3 -2.4,-9.3 -1,-4 -2.1,-8.2 -3.1,-12.5 -1,-4.3 -1.8,-7.8 -2.4,-10.6 -0.5,2.8 -1.2,6.2 -2.1,10.3 -1,4.1 -1.9,8.1 -2.8,12.1 -0.4,1.4 -0.7,2.6 -1,3.8 h -31.3 l 15,-46.2 h 43.8 l 27.6,83.7 H 5543 Z"
             id="path32"
             style="fill:#000000;fill-opacity:1" /></g><g
           id="g34"
           transform="matrix(0.26458333,0,0,0.26458333,-1503.0589,-35.369072)"
           style="fill:#000000;fill-opacity:1"><path
             class="st6"
             d="m 5829.7,1360.9 v -19.5 h -25 v 93.3 h 33 v -64.5 c -4.6,-0.7 -8,-4.6 -8,-9.3 z"
             id="path33"
             style="fill:#000000;fill-opacity:1" /><path
             class="st6"
             d="m 5810.5,1305.3 v 28.3 h 25 v 19.5 c 0,4.7 3.5,8.6 8,9.3 v -57.1 z"
             id="path34"
             style="fill:#000000;fill-opacity:1" /></g><g
           id="g46"
           transform="matrix(0.26458333,0,0,0.26458333,-1503.0589,-35.369072)"
           style="fill:#000000;fill-opacity:1"><g
             id="g43"
             style="fill:#000000;fill-opacity:1"><path
               class="st6"
               d="m 5945.6,1437 c -8.6,0 -16.8,-1.7 -24.4,-5.2 -7.6,-3.4 -14.3,-8.2 -20,-14.3 -5.8,-6.1 -10.3,-13.1 -13.5,-21.1 -3.3,-8 -4.9,-16.6 -4.9,-25.7 0,-9.1 1.6,-17.8 4.9,-25.8 3.3,-8 7.8,-15 13.5,-21.1 5.8,-6.1 12.4,-10.8 20,-14.2 7.6,-3.4 15.7,-5.2 24.4,-5.2 10.3,0 19.9,2.4 28.6,7.2 8.7,4.8 15.9,11.1 21.6,19.1 l -22.5,12.1 c -3.4,-4 -7.5,-7.2 -12.3,-9.6 -4.8,-2.4 -10,-3.6 -15.4,-3.6 -5.2,0 -10,1.1 -14.6,3.2 -4.6,2.1 -8.6,5.1 -12,8.9 -3.4,3.8 -6.1,8.1 -8.1,13.1 -1.9,4.9 -2.9,10.3 -2.9,16 0,5.7 1,11 2.9,15.9 1.9,5 4.6,9.3 8.1,13.1 3.4,3.7 7.4,6.7 12,8.9 4.6,2.2 9.4,3.2 14.6,3.2 5.5,0 10.7,-1.2 15.5,-3.7 4.8,-2.4 8.9,-5.7 12.3,-9.7 l 22.5,12.2 c -5.7,7.9 -12.9,14.3 -21.6,19.1 -8.9,4.8 -18.4,7.2 -28.7,7.2 z"
               id="path35"
               style="fill:#000000;fill-opacity:1" /><path
               class="st6"
               d="m 6097.4,1376.6 v 58.1 h -25.2 v -51.1 c 0,-3.2 -0.8,-6.1 -2.3,-8.7 -1.6,-2.6 -3.6,-4.6 -6.2,-6.2 -2.6,-1.5 -5.5,-2.3 -8.6,-2.3 -3.1,0 -6.1,0.8 -8.7,2.3 -2.6,1.5 -4.7,3.6 -6.2,6.2 -1.5,2.6 -2.3,5.5 -2.3,8.7 v 51.1 h -25.2 l -0.1,-136.9 h 25.2 l 0.1,52.4 c 3,-2.9 6.6,-5.2 10.7,-6.9 4.1,-1.6 8.4,-2.5 13,-2.5 6.6,0 12.6,1.6 18,4.8 5.4,3.2 9.7,7.5 12.9,12.9 3.3,5.5 4.9,11.5 4.9,18.1 z"
               id="path36"
               style="fill:#000000;fill-opacity:1" /><path
               class="st6"
               d="m 6180.8,1343.4 h 25.2 v 91.3 h -25.3 l -1.2,-9.5 c -2.4,3.5 -5.4,6.4 -9.1,8.6 -3.7,2.2 -8.1,3.3 -13.1,3.3 -6.8,0 -13.2,-1.3 -19.1,-3.8 -5.9,-2.6 -11.1,-6.1 -15.6,-10.6 -4.5,-4.5 -8,-9.7 -10.5,-15.7 -2.5,-5.9 -3.8,-12.3 -3.8,-19.1 0,-6.8 1.2,-12.6 3.6,-18.3 2.4,-5.7 5.7,-10.6 10,-15 4.3,-4.3 9.3,-7.7 14.9,-10.1 5.6,-2.4 11.7,-3.7 18.2,-3.7 5.6,0 10.6,1.2 15.1,3.6 4.5,2.4 8.4,5.4 11.7,9 z m -24.1,69.5 c 4.1,0 7.9,-1.1 11.2,-3.2 3.3,-2.1 6,-5 7.9,-8.6 1.9,-3.6 2.9,-7.6 2.9,-12 0,-4.4 -1,-8.5 -2.9,-12.1 -1.9,-3.6 -4.6,-6.5 -7.9,-8.6 -3.4,-2.1 -7.1,-3.2 -11.2,-3.2 -4.1,0 -8,1.1 -11.4,3.2 -3.4,2.1 -6.1,5 -8.1,8.6 -2,3.6 -3,7.6 -3,12 0,4.4 1,8.4 3.1,12 2,3.6 4.8,6.5 8.2,8.6 3.3,2.2 7.1,3.3 11.2,3.3 z"
               id="path37"
               style="fill:#000000;fill-opacity:1" /><path
               class="st6"
               d="m 6224.5,1434.7 v -136.9 h 25.2 v 136.9 z"
               id="path38"
               style="fill:#000000;fill-opacity:1" /><path
               class="st6"
               d="m 6271.6,1434.7 v -136.9 h 25.2 v 136.9 z"
               id="path39"
               style="fill:#000000;fill-opacity:1" /><path
               class="st6"
               d="m 6357.2,1437 c -8.4,0 -16.1,-2.2 -23,-6.5 -6.9,-4.3 -12.4,-10.1 -16.5,-17.4 -4.1,-7.3 -6.2,-15.4 -6.2,-24.2 0,-6.6 1.2,-12.9 3.6,-18.7 2.4,-5.8 5.6,-10.9 9.8,-15.3 4.2,-4.4 9,-7.9 14.6,-10.4 5.5,-2.5 11.4,-3.7 17.7,-3.7 7.2,0 13.9,1.6 19.9,4.7 6,3.1 11.1,7.3 15.2,12.7 4.2,5.4 7.1,11.4 9,18.2 1.8,6.8 2.1,13.8 0.9,21.1 h -63.3 c 0.8,2.7 2,5.1 3.7,7.3 1.7,2.2 3.7,3.9 6.2,5.2 2.5,1.3 5.3,1.9 8.5,2 3.2,0.1 6.1,-0.7 8.8,-2.2 2.7,-1.5 5,-3.6 6.9,-6.1 l 25.7,5.9 c -3.7,8.1 -9.2,14.7 -16.6,19.9 -7.5,5 -15.8,7.6 -24.9,7.5 z m -19.4,-58.2 h 38.8 c -0.8,-3 -2.1,-5.8 -4,-8.2 -1.9,-2.4 -4.2,-4.4 -6.8,-5.8 -2.6,-1.4 -5.5,-2.1 -8.6,-2.1 -3.1,0 -5.9,0.7 -8.5,2.1 -2.6,1.4 -4.9,3.3 -6.8,5.7 -1.9,2.5 -3.2,5.2 -4.1,8.3 z"
               id="path40"
               style="fill:#000000;fill-opacity:1" /><path
               class="st6"
               d="m 6501.6,1376.6 v 58.1 h -25.2 v -51.1 c 0,-3.2 -0.8,-6.1 -2.3,-8.7 -1.6,-2.6 -3.6,-4.6 -6.2,-6.2 -2.6,-1.5 -5.5,-2.3 -8.6,-2.3 -3.2,0 -6.1,0.8 -8.7,2.3 -2.6,1.5 -4.7,3.6 -6.2,6.2 -1.5,2.6 -2.3,5.5 -2.3,8.7 v 51.1 h -25.2 l -0.1,-91.3 h 25.2 l 0.1,6.8 c 3,-2.9 6.6,-5.2 10.7,-6.9 4.1,-1.6 8.4,-2.5 13,-2.5 6.6,0 12.6,1.6 18,4.8 5.4,3.2 9.7,7.5 12.9,12.9 3.3,5.5 4.9,11.5 4.9,18.1 z"
               id="path41"
               style="fill:#000000;fill-opacity:1" /><path
               class="st6"
               d="m 6584.3,1343.4 h 25.2 v 92.6 c 0,6.8 -1.4,12.9 -4.1,18.3 -2.7,5.4 -6.5,10.1 -11.2,14 -4.7,3.9 -10.1,6.9 -16.3,9 -6.1,2.1 -12.6,3.1 -19.4,3.1 -6.5,0 -12.6,-1.3 -18.5,-3.8 -5.9,-2.5 -11.1,-6 -15.7,-10.5 -4.6,-4.4 -8.1,-9.6 -10.7,-15.3 l 23,-10.5 c 1.3,3 3,5.7 5.2,7.9 2.2,2.2 4.8,3.9 7.7,5.1 2.9,1.2 5.9,1.8 9,1.8 3.3,0 6.6,-0.4 9.6,-1.2 3.1,-0.8 5.8,-2 8.3,-3.6 2.4,-1.6 4.4,-3.6 5.8,-5.9 1.4,-2.3 2.1,-5.1 2.1,-8.3 v -10.6 c -2.8,3.5 -6.2,6.3 -10.2,8.4 -4,2.2 -8.6,3.2 -13.8,3.2 -6.6,0 -12.7,-1.3 -18.5,-3.7 -5.8,-2.5 -10.8,-5.9 -15.2,-10.4 -4.4,-4.4 -7.8,-9.5 -10.3,-15.3 -2.5,-5.8 -3.7,-12 -3.7,-18.6 0,-6.6 1.2,-12.8 3.7,-18.6 2.5,-5.8 5.9,-10.9 10.3,-15.3 4.4,-4.4 9.4,-7.9 15.2,-10.4 5.8,-2.5 11.9,-3.7 18.5,-3.7 5.2,0 9.8,1.1 13.8,3.2 4,2.2 7.4,5 10.2,8.4 z m -23.6,69.5 c 4.1,0 7.9,-1.1 11.2,-3.2 3.3,-2.2 6,-5 7.9,-8.6 1.9,-3.6 2.9,-7.6 2.9,-12 0,-4.4 -1,-8.4 -2.9,-12 -1.9,-3.6 -4.6,-6.5 -7.9,-8.6 -3.4,-2.1 -7.1,-3.2 -11.2,-3.2 -4.1,0 -7.8,1.1 -11.2,3.2 -3.4,2.1 -6.1,5 -8.1,8.6 -2,3.6 -3,7.6 -3,12 0,4.4 1,8.4 3,12 2,3.6 4.7,6.5 8.1,8.6 3.4,2.1 7.1,3.2 11.2,3.2 z"
               id="path42"
               style="fill:#000000;fill-opacity:1" /><path
               class="st6"
               d="m 6669.1,1437 c -8.4,0 -16.1,-2.2 -23,-6.5 -6.9,-4.3 -12.4,-10.1 -16.5,-17.4 -4.1,-7.3 -6.2,-15.4 -6.2,-24.2 0,-6.6 1.2,-12.9 3.6,-18.7 2.4,-5.8 5.6,-10.9 9.8,-15.3 4.2,-4.4 9,-7.9 14.6,-10.4 5.5,-2.5 11.4,-3.7 17.7,-3.7 7.2,0 13.9,1.6 19.9,4.7 6,3.1 11.1,7.3 15.2,12.7 4.1,5.4 7.1,11.4 9,18.2 1.8,6.8 2.1,13.8 0.9,21.1 h -63.3 c 0.8,2.7 2,5.1 3.7,7.3 1.7,2.2 3.7,3.9 6.2,5.2 2.5,1.3 5.3,1.9 8.5,2 3.2,0.1 6.1,-0.7 8.8,-2.2 2.7,-1.5 5,-3.6 6.9,-6.1 l 25.7,5.9 c -3.7,8.1 -9.2,14.7 -16.6,19.9 -7.4,5.2 -15.7,7.6 -24.9,7.5 z m -19.3,-58.2 h 38.8 c -0.8,-3 -2.1,-5.8 -4,-8.2 -1.9,-2.4 -4.2,-4.4 -6.8,-5.8 -2.6,-1.4 -5.5,-2.1 -8.6,-2.1 -3.1,0 -5.9,0.7 -8.5,2.1 -2.7,1.4 -4.9,3.3 -6.8,5.7 -1.9,2.5 -3.3,5.2 -4.1,8.3 z"
               id="path43"
               style="fill:#000000;fill-opacity:1" /></g><g
             id="g45"
             style="fill:#000000;fill-opacity:1"><path
               class="st6"
               d="m 5687.4,1342.5 h 25.2 v 92.6 c 0,6.8 -1.4,12.9 -4.1,18.3 -2.7,5.4 -6.5,10.1 -11.2,14 -4.7,3.9 -10.1,6.9 -16.3,9 -6.1,2.1 -12.6,3.1 -19.4,3.1 -6.5,0 -12.6,-1.3 -18.5,-3.8 -5.9,-2.5 -11.1,-6 -15.7,-10.5 -4.6,-4.5 -8.1,-9.6 -10.7,-15.3 l 23,-10.5 c 1.3,3 3,5.7 5.2,7.9 2.2,2.2 4.8,3.9 7.7,5.1 2.9,1.2 5.9,1.8 9,1.8 3.3,0 6.6,-0.4 9.6,-1.2 3.1,-0.8 5.8,-2 8.3,-3.6 2.4,-1.6 4.4,-3.6 5.8,-5.9 1.4,-2.4 2.1,-5.1 2.1,-8.3 v -10.6 c -2.8,3.5 -6.2,6.3 -10.2,8.4 -4,2.2 -8.6,3.2 -13.8,3.2 -6.6,0 -12.7,-1.3 -18.5,-3.7 -5.8,-2.5 -10.8,-5.9 -15.2,-10.4 -4.4,-4.4 -7.8,-9.5 -10.3,-15.3 -2.5,-5.8 -3.7,-12 -3.7,-18.6 0,-6.6 1.2,-12.8 3.7,-18.6 2.5,-5.8 5.9,-10.9 10.3,-15.3 4.4,-4.4 9.4,-7.9 15.2,-10.4 5.8,-2.5 11.9,-3.7 18.5,-3.7 5.2,0 9.8,1.1 13.8,3.2 4,2.2 7.4,5 10.2,8.4 z m -23.7,69.4 c 4.1,0 7.9,-1.1 11.2,-3.2 3.3,-2.2 6,-5 7.9,-8.6 1.9,-3.6 2.9,-7.6 2.9,-12 0,-4.4 -1,-8.4 -2.9,-12 -1.9,-3.6 -4.6,-6.5 -7.9,-8.6 -3.3,-2.1 -7.1,-3.2 -11.2,-3.2 -4.1,0 -7.8,1.1 -11.2,3.2 -3.4,2.1 -6.1,5 -8.1,8.6 -2,3.6 -3,7.6 -3,12 0,4.4 1,8.4 3,12 2,3.6 4.7,6.5 8.1,8.6 3.4,2.2 7.2,3.2 11.2,3.2 z"
               id="path44"
               style="fill:#000000;fill-opacity:1" /><path
               class="st6"
               d="m 5734.6,1433.8 -0.1,-91.3 h 25.2 l 0.1,6.8 c 3,-2.9 6.6,-5.2 10.7,-6.9 4.1,-1.6 8.4,-2.5 13,-2.5 3.3,0 6.7,0.5 10,1.5 l -10,25.5 c -2.2,-0.9 -4.4,-1.4 -6.7,-1.4 -3.2,0 -6.1,0.8 -8.7,2.3 -2.6,1.5 -4.7,3.6 -6.2,6.2 -1.5,2.6 -2.3,5.5 -2.3,8.7 v 51.1 z"
               id="path45"
               style="fill:#000000;fill-opacity:1" /></g></g></g><text
         xml:space="preserve"
         transform="matrix(0.40786151,0,0,0.40786151,-46.757845,-257.67485)"
         id="text47"
         style="font-size:192px;font-family:Cairo;-inkscape-font-specification:Cairo;text-align:center;white-space:pre;shape-inside:url(#rect47);display:inline;fill:#000000;fill-opacity:1;stroke:#ff00ff;stroke-width:1.9;stroke-linejoin:round;stroke-opacity:0"><tspan
           x="3551.8434"
           y="1894.4711"
           id="tspan12"><tspan
             style="font-family:'a Astro Space';-inkscape-font-specification:'a Astro Space'"
             id="tspan11">Organizer</tspan></tspan></text></g></g></svg>
